<svg xmlns="http://www.w3.org/2000/svg" viewBox="0 0 256 256">
  <defs>
    <linearGradient id="grad" x1="0%" y1="0%" x2="100%" y2="100%">
      <stop offset="0%" style="stop-color:#0A2463;stop-opacity:1" />
      <stop offset="100%" style="stop-color:#00D9FF;stop-opacity:1" />
    </linearGradient>
  </defs>
  <rect width="256" height="256" fill="#0A2463"/>
  <path d="M 60 80 L 140 80 L 140 100 L 85 100 L 85 118 L 130 118 L 130 138 L 85 138 L 85 156 L 140 156 L 140 176 L 60 176 Z" fill="url(#grad)"/>
  <path d="M 150 80 L 185 80 Q 210 80 210 105 Q 210 128 185 128 L 175 128 L 175 176 L 150 176 Z M 175 100 L 175 108 L 182 108 Q 185 108 185 104 Q 185 100 182 100 Z" fill="url(#grad)"/>
</svg>